<?xml version="1.0" encoding="utf-8"?>
<!-- Svg Vector Icons : http://www.onlinewebfonts.com/icon -->
<!DOCTYPE svg PUBLIC "-//W3C//DTD SVG 1.1//EN" "http://www.w3.org/Graphics/SVG/1.1/DTD/svg11.dtd">
<svg version="1.1" xmlns="http://www.w3.org/2000/svg" xmlns:xlink="http://www.w3.org/1999/xlink" x="0px" y="0px" viewBox="0 0 1000 1000" enable-background="new 0 0 1000 1000" xml:space="preserve">
<metadata> Svg Vector Icons : http://www.onlinewebfonts.com/icon </metadata>
<g><path d="M448.6,578.5c0-12.8-9.9-22.7-22.8-22.7H280.9c-12.6,0-22.6,9.9-22.6,22.7c0,12.3,9.9,22.2,22.6,22.2h144.9C438.7,600.8,448.6,590.9,448.6,578.5L448.6,578.5L448.6,578.5z M917.6,293.3L917.6,293.3L645.2,21c-6.9-6.7-16.4-11-26.8-11H172c-27.6,0-52.8,11.3-71,29.4C82.6,57.9,71.2,83,71.2,110.9v778.2c0,28.1,11.4,52.6,29.8,71.1l0,0l0,0c18.2,18.2,43.4,29.7,71,29.7h656c27,0,52.1-10.9,70.4-28.8l0.5-0.9h0.2c18.5-18.5,29.7-43.6,29.7-71.1V320.7C928.8,310.8,925.1,300.8,917.6,293.3L917.6,293.3L917.6,293.3z M641.3,123.5L641.3,123.5l173.8,174.4H681.7c-10.8,0-21.4-5.1-28.4-12.3l-1.1-1.1c-7-6.9-10.9-16.9-10.9-27L641.3,123.5L641.3,123.5z M853.4,889.2L853.4,889.2c0,7-2.7,13.4-7.2,17.9h-0.3c-4.6,4.8-11,7.7-18,7.7H172c-6.7,0-13.2-3-18-7.7l0,0c-4.2-4.5-7.5-11-7.5-17.9V110.9c0-7,3.3-13.3,7.5-17.9c4.8-5.1,11.3-7.5,18-7.5h423.7v172c0,22.3,9.4,43.4,24.4,58.6l1.1,1.6c15.5,15.8,36.9,25.2,60.5,25.2h171.7V889.2L853.4,889.2L853.4,889.2z M280.3,396.1L280.3,396.1h-3.5v1h-1.9l-0.2,0.6H274l-0.6,0.5h-1.6v0.5h-1.4l-0.3,0.3l-0.5,0.6h-0.5l-0.6,0.5h-0.3l-0.2,0.2v0.3l-0.5,0.3l-0.6,0.2l-0.5,0.3v0.5h-0.5l-0.6,0.5l-0.5,0.5v0.5h-0.7v0.6h-0.4v0.6h-0.5l-0.2,0.5l-0.2,0.3l-0.2,0.6l-0.3,0.5h-0.4l-0.2,0.8l-0.5,0.3v0.5l-0.5,0.3v0.5l-0.6,1.1v1.6l-0.5,0.2v1.1l-0.5,0.5v1.4l-0.6,0.5v7.6h0.6v1.8l0.5,0.5v1.1l0.5,0.5v1.4l0.6,0.5v0.5l0.5,0.5v0.5l0.5,0.6l0.2,0.3l0.4,0.5l0.3,0.3l0.2,0.5l0.2,0.3l0.2,0.5l0.5,0.5l0.4,0.3h0.7v0.6l0.5,1h0.6l0.5,0.5v0.5l0.5,0.5h1.1v0.3l0.2,0.4l0.3,0.2l0.6,0.3l0.5,0.3h0.5l0.3,0.6h0.9l0.5,0.5h0.6l0.5,0.3v0.3h1.1v0.2h1l0.5,0.6h449l0.3-0.6h1.9v-0.2h1.1V440l0.5-0.3h0.6l0.5-0.5h0.5l0.6-0.6l0.5-0.3l0.2-0.3l0.9-0.2l0.3-0.4v-0.3h0.7l0.6-0.5l1-1h0.6v-1l0.5-0.6h0.5v-0.3l0.6-0.5l0.2-0.5l0.3-0.3l0.3-0.5l0.3-0.3l0.5-0.5v-0.3l0.6-0.6l0.2-0.5l0.3-0.5l0.5-0.5v-1.1l0.6-0.3v-0.5l0.5-0.5v-1.6l0.5-0.3V414l-0.5-0.6v-1.6l-0.5-0.3v-0.5l-0.6-0.5v-1.6l-0.5-0.5l-0.3-0.3l-0.2-0.5l-0.6-0.3v-0.8h-0.5l-0.3-0.5l-0.3-0.6l-0.3-0.3l-0.2-0.5h-0.6v-1.1h-0.5l-0.5-0.5v-0.5l-0.6-0.5h-0.5l-0.5-0.5l-0.6-0.3l-0.3-0.2l-0.5-0.3v-0.3l-0.3-0.2h-0.9l-0.2-0.5h-0.5V399l-0.6-0.3h-1v-0.5h-1.6l-0.6-0.5h-1l-0.9-0.6h-1.3v-1L280.3,396.1L280.3,396.1z M718.6,520.2L718.6,520.2c-23.1-23.3-54.7-37.8-90.2-37.8c-35.1,0-67.1,14.5-90.2,37.8c-23.1,22.7-37.4,54.8-37.4,89.9c0,17.1,3.2,33.4,9.7,48.4l-81.2,140.2c-3.5,4.9-4.6,11.5-3,17.7c3.2,12,15.6,19.3,27.9,15.8l63.7-16.6l17.1,63.7h0.6c1,5.9,4.5,10.4,9.8,13.9c11,6,24.6,2.4,30.8-8.6l52.2-90.4l51,88.8c2.7,5.6,7.8,10.4,14.5,12c12,3.5,24.7-3.5,27.9-15.7l17.1-63.7l63.9,16.6c5.3,1.6,11.5,1,17.3-1.9c10.2-6.5,14-20.1,7.8-31.1l-81-140.7c5.8-15,9-31.3,9-48.4C756,575.1,741.5,542.9,718.6,520.2L718.6,520.2L718.6,520.2z M608.6,738.5L608.6,738.5L564.7,815l-8.8-33.7c-3.2-11.2-15.9-18.1-27.9-15.5h-0.5l-32.5,8.5l42.9-73.8h0.3c19.8,20,43.9,31.6,70.9,35.9l0,0h0.9L608.6,738.5L608.6,738.5z M560.1,656.1L560.1,656.1l-1.4-1.1v-0.5c-8.3-12.9-12.8-28.2-12.8-44.5c0-22.7,9.3-43.3,24-58.2c15-15,35.6-24.4,58.4-24.4c22.7,0,43.6,9.4,58.3,24.4c15.2,14.9,24.3,35.5,24.3,58.2c0,22.3-8.5,42-23.1,57.3l0,0l-1.2,1C651.7,703.7,587.4,700.5,560.1,656.1L560.1,656.1L560.1,656.1z M762,774.3L762,774.3l-33.2-8.5c-11.8-2.6-24.7,4.3-27.9,15.5l-8.8,33.7l-44.5-76.5l-0.8-2.1h1.4l0.8-0.6h0.5c26.3-4.3,49.3-15.8,69.1-35.4l0,0L762,774.3L762,774.3z M280.9,282.6L280.9,282.6h242.3c12.4,0,22.5-10.4,22.5-22.7c0-12.8-10.1-22.7-22.5-22.7H280.9c-12.6,0-22.6,9.9-22.6,22.7C258.3,272.2,268.3,282.6,280.9,282.6L280.9,282.6L280.9,282.6z"/></g>
</svg>